# xmcd CD database file
#
# Track frame offsets:
#	150
#	16618
#	32359
#	43741
#	54013
#	68832
#	83782
#	98813
#	113665
#	128843
#	142837
#	160595
#
# Disc length: 2302 seconds
#
# Revision: 0
# Processed by: cddbd v1.5.2PL0 Copyright (c) Steve Scherf et al.
# Submitted via: cdripper 1,0,39,0213
#
DISCID=8108fc0c
DTITLE=Sergio Mendes - Essential
DYEAR=1900
DGENRE=Jazz
TTITLE0=Masquerade
TTITLE1=After Sunrise
TTITLE2=Agua De Beber
TTITLE3=Batucada (The Beat)
TTITLE4=Berimbau
TTITLE5=Chove Chuva
TTITLE6=Desafinado (Bossa Rio)
TTITLE7=Fool On A Hill
TTITLE8=For me
TTITLE9=Going Out of My Head
TTITLE10=Like a Lover
TTITLE11=Mais que Nada
EXTD=
EXTT0=
EXTT1=
EXTT2=
EXTT3=
EXTT4=
EXTT5=
EXTT6=
EXTT7=
EXTT8=
EXTT9=
EXTT10=
EXTT11=
PLAYORDER=
